<svg width="128" height="128" viewBox="0 0 128 128" fill="none" xmlns="http://www.w3.org/2000/svg">
  <defs>
    <linearGradient id="relayTokBg" x1="20" y1="14" x2="112" y2="120" gradientUnits="userSpaceOnUse">
      <stop offset="0" stop-color="#7C5CFF" />
      <stop offset="0.45" stop-color="#8F75FF" />
      <stop offset="1" stop-color="#4FC3FF" />
    </linearGradient>
    <linearGradient id="relayTokAccent" x1="48" y1="32" x2="102" y2="96" gradientUnits="userSpaceOnUse">
      <stop offset="0" stop-color="#5B5DFF" />
      <stop offset="1" stop-color="#7D4BFF" />
    </linearGradient>
    <linearGradient id="relayTokCheck" x1="52" y1="46" x2="92" y2="86" gradientUnits="userSpaceOnUse">
      <stop offset="0" stop-color="#4CC9FF" />
      <stop offset="1" stop-color="#A7F3FF" />
    </linearGradient>
    <filter id="relayTokShadow" x="6" y="6" width="116" height="124" filterUnits="userSpaceOnUse">
      <feOffset dy="6" />
      <feGaussianBlur stdDeviation="10" />
      <feColorMatrix type="matrix" values="0 0 0 0 0.2 0 0 0 0 0.2 0 0 0 0 0.4 0 0 0 0.25 0" />
      <feBlend in2="SourceGraphic" result="effect1_dropShadow" />
    </filter>
  </defs>

  <g filter="url(#relayTokShadow)">
    <rect x="18" y="14" width="92" height="92" rx="28" fill="url(#relayTokBg)" />
  </g>

  <path
    d="M34 34c0-9.941 8.059-18 18-18h38c9.941 0 18 8.059 18 18v30c0 9.941-8.059 18-18 18H72.5l-11.2 11.2c-2.3 2.3-6.3 0.67-6.3-2.59V82H52c-9.941 0-18-8.059-18-18V34Z"
    fill="white"
    fill-opacity="0.96"
  />

  <path
    d="M58 40h26c6.627 0 12 5.373 12 12s-5.373 12-12 12H70l-6.5 6.5c-2.1 2.1-5.5 0.62-5.5-2.37V64h-0.5C51.373 64 46 58.627 46 52s5.373-12 12-12Z"
    fill="url(#relayTokAccent)"
    fill-opacity="0.85"
  />

  <path
    d="M50 88h30c6.075 0 11 4.925 11 11s-4.925 11-11 11H66l-7.5 7.5c-2.2 2.2-6 0.65-6-2.47V110h-2.5C44.925 110 40 105.075 40 99s4.925-11 11-11Z"
    fill="white"
    fill-opacity="0.9"
  />

  <path
    d="M54 56l10 9.5 20-21"
    stroke="url(#relayTokCheck)"
    stroke-width="6"
    stroke-linecap="round"
    stroke-linejoin="round"
  />

  <circle cx="94" cy="44" r="10" fill="white" fill-opacity="0.88" />
  <circle cx="94" cy="44" r="6" fill="url(#relayTokAccent)" />
</svg>